<svg xmlns="http://www.w3.org/2000/svg" version="1.1" xmlns:xlink="http://www.w3.org/1999/xlink" xmlns:svgjs="http://svgjs.dev/svgjs" width="1500" height="174" viewBox="0 0 1500 174"><g transform="matrix(1,0,0,1,-0.9090909090909918,0.8355946891253012)"><svg viewBox="0 0 396 46" data-background-color="#ffffff" preserveAspectRatio="xMidYMid meet" height="174" width="1500" xmlns="http://www.w3.org/2000/svg" xmlns:xlink="http://www.w3.org/1999/xlink"><g id="tight-bounds" transform="matrix(1,0,0,1,0.2400000000000091,-0.22090434310209162)"><svg viewBox="0 0 395.52 46.44180868620419" height="46.44180868620419" width="395.52"><g><svg viewBox="0 0 479.6583282727006 56.32129934361167" height="46.44180868620419" width="395.52"><g transform="matrix(1,0,0,1,84.13832827270059,7.783913295680051)"><svg viewBox="0 0 395.52000000000004 40.75347275225157" height="40.75347275225157" width="395.52000000000004"><g id="textblocktransform"><svg viewBox="0 0 395.52000000000004 40.75347275225157" height="40.75347275225157" width="395.52000000000004" id="textblock"><g><svg viewBox="0 0 395.52000000000004 40.75347275225157" height="40.75347275225157" width="395.52000000000004"><g transform="matrix(1,0,0,1,0,0)"><svg width="395.52000000000004" viewBox="-1.44 -32.4 319.85 32.96" height="40.75347275225157" data-palette-color="#e363aa"><path d="M13.7-31.86L24.29 0 20.7 0 17.7-9.11 5.1-9.11 2.15 0-1.44 0 9.16-31.86 13.7-31.86ZM6.05-12.06L16.75-12.06 11.4-28.49 6.05-12.06ZM40.74-13.79L50.34 0 46.09 0 36.79-13.65 31.83-13.65 31.83 0 28.49 0 28.49-31.86 38.99-31.86Q44.24-31.86 47.12-29.58 50-27.29 50-22.75L50-22.75Q50-20.75 49.29-19.15 48.58-17.55 47.36-16.43 46.14-15.31 44.44-14.62 42.75-13.94 40.74-13.79L40.74-13.79ZM46.53-22.75L46.53-22.75Q46.53-26 44.52-27.5 42.5-29 38.99-29L38.99-29 31.83-29 31.83-16.5 38.99-16.5Q42.5-16.5 44.52-17.98 46.53-19.46 46.53-22.75ZM76.14-31.86L76.14 0 71.99 0 59.13-26.95 59.13 0 55.78 0 55.78-31.86 60.49-31.86 72.77-6.15 72.77-31.86 76.14-31.86ZM100.07-2.86L100.07 0 86.42 0 86.42-2.86 91.57-2.86 91.57-29 86.42-29 86.42-31.86 100.07-31.86 100.07-29 94.94-29 94.94-2.86 100.07-2.86ZM149.91-13.79L159.51 0 155.26 0 145.96-13.65 141-13.65 141 0 137.66 0 137.66-31.86 148.16-31.86Q153.41-31.86 156.29-29.58 159.17-27.29 159.17-22.75L159.17-22.75Q159.17-20.75 158.46-19.15 157.75-17.55 156.53-16.43 155.31-15.31 153.61-14.62 151.92-13.94 149.91-13.79L149.91-13.79ZM155.7-22.75L155.7-22.75Q155.7-26 153.69-27.5 151.67-29 148.16-29L148.16-29 141-29 141-16.5 148.16-16.5Q151.67-16.5 153.69-17.98 155.7-19.46 155.7-22.75ZM187.36-15.89L187.36-15.89Q187.36-12.7 186.7-9.72 186.04-6.74 184.6-4.47 183.16-2.2 180.83-0.82 178.5 0.56 175.16 0.56L175.16 0.56Q171.81 0.56 169.48-0.82 167.15-2.2 165.7-4.47 164.24-6.74 163.6-9.72 162.95-12.7 162.95-15.89L162.95-15.89Q162.95-19.09 163.6-22.07 164.24-25.05 165.72-27.34 167.2-29.64 169.53-31.02 171.86-32.4 175.16-32.4L175.16-32.4Q178.45-32.4 180.78-31.02 183.11-29.64 184.56-27.34 186-25.05 186.68-22.07 187.36-19.09 187.36-15.89ZM183.99-15.89L183.99-15.89Q183.99-19.04 183.4-21.57 182.8-24.1 181.67-25.88 180.55-27.66 178.9-28.6 177.26-29.54 175.16-29.54L175.16-29.54Q172.54-29.54 170.85-28.32 169.15-27.1 168.12-25.12 167.1-23.14 166.7-20.73 166.29-18.31 166.29-15.89L166.29-15.89Q166.29-13.5 166.7-11.07 167.1-8.64 168.12-6.7 169.15-4.76 170.85-3.53 172.54-2.29 175.16-2.29L175.16-2.29Q177.74-2.29 179.45-3.53 181.16-4.76 182.19-6.7 183.21-8.64 183.6-11.07 183.99-13.5 183.99-15.89ZM212.6-31.86L212.6 0 209.24 0 209.24-14.75 195.59-14.75 195.59 0 192.24 0 192.24-31.86 195.59-31.86 195.59-17.6 209.24-17.6 209.24-31.86 212.6-31.86ZM232.04-31.86L242.63 0 239.04 0 236.04-9.11 223.44-9.11 220.49 0 216.9 0 227.49-31.86 232.04-31.86ZM224.39-12.06L235.09-12.06 229.74-28.49 224.39-12.06ZM267.19-31.86L267.19 0 263.04 0 250.17-26.95 250.17 0 246.83 0 246.83-31.86 251.54-31.86 263.82-6.15 263.82-31.86 267.19-31.86ZM296.73-15.89L296.73-15.89Q296.73-12.7 296.06-9.8 295.39-6.91 293.91-4.72 292.43-2.54 290.1-1.27 287.77 0 284.47 0L284.47 0 274.12 0 274.12-31.86 284.47-31.86Q287.72-31.86 290.05-30.55 292.38-29.25 293.86-27.05 295.34-24.85 296.03-21.97 296.73-19.09 296.73-15.89ZM293.38-15.89L293.38-15.89Q293.38-22.14 291.03-25.57 288.67-29 284.47-29L284.47-29 277.47-29 277.47-2.86 284.47-2.86Q288.67-2.86 291.03-6.25 293.38-9.64 293.38-15.89ZM318.41-2.86L318.41 0 304.76 0 304.76-2.86 309.91-2.86 309.91-29 304.76-29 304.76-31.86 318.41-31.86 318.41-29 313.28-29 313.28-2.86 318.41-2.86Z" opacity="1" transform="matrix(1,0,0,1,0,0)" fill="#e363aa" class="wordmark-text-0" data-fill-palette-color="primary" id="text-0"></path></svg></g></svg></g></svg></g></svg></g><g><svg viewBox="0 0 74.51741143924005 56.32129934361167" height="56.32129934361167" width="74.51741143924005"><g><svg xmlns="http://www.w3.org/2000/svg" xmlns:xlink="http://www.w3.org/1999/xlink" version="1.1" x="0" y="0" viewBox="6.5 18 86 65" enable-background="new 0 0 100 100" xml:space="preserve" height="56.32129934361167" width="74.51741143924005" class="icon-icon-0" data-fill-palette-color="accent" id="icon-0"><g fill="#e363aa" data-fill-palette-color="accent"><path d="M35.845 61.275l-10.72-5.09c-1.209-0.572-1.94-1.463-1.94-2.703v-0.318c0-1.24 0.731-2.131 1.94-2.704l10.72-5.089c0.381-0.191 0.731-0.318 1.177-0.318 1.018-0.031 1.94 0.859 1.94 2.004 0 0.922-0.509 1.559-1.336 1.94l-9.606 4.294 9.606 4.295c0.827 0.381 1.336 1.113 1.336 2.004 0 1.177-0.922 2.004-2.1 1.972C36.513 61.562 36.163 61.435 35.845 61.275z" fill="#e363aa" data-fill-palette-color="accent"></path><path d="M41.889 66.047l12.438-25.988c0.35-0.731 0.922-1.113 1.686-1.113 1.018 0 1.876 0.859 1.876 1.813 0 0.35-0.127 0.7-0.222 0.923L45.229 67.669c-0.35 0.731-0.922 1.113-1.686 1.113-1.018 0-1.876-0.858-1.876-1.813C41.667 66.619 41.793 66.27 41.889 66.047z" fill="#e363aa" data-fill-palette-color="accent"></path><path d="M64.155 45.371l10.72 5.089c1.208 0.573 1.94 1.464 1.94 2.704v0.318c0 1.24-0.731 2.131-1.94 2.703l-10.72 5.09c-0.381 0.191-0.731 0.318-1.177 0.318-1.018 0.031-1.94-0.859-1.94-2.004 0-0.923 0.509-1.559 1.336-1.94l9.606-4.295-9.606-4.294c-0.827-0.381-1.336-1.113-1.336-2.004 0-1.177 0.923-2.004 2.1-1.973C63.487 45.084 63.837 45.212 64.155 45.371z" fill="#e363aa" data-fill-palette-color="accent"></path></g><path d="M92.5 21c0-1.657-1.343-3-3-3h-80c-1.657 0-3 1.343-3 3v59c0 1.657 1.343 3 3 3h80c1.657 0 3-1.343 3-3V21zM26 20.833c1.196 0 2.167 0.97 2.167 2.167s-0.97 2.167-2.167 2.167-2.167-0.97-2.167-2.167S24.804 20.833 26 20.833zM20 20.833c1.196 0 2.167 0.97 2.167 2.167s-0.97 2.167-2.167 2.167-2.167-0.97-2.167-2.167S18.804 20.833 20 20.833zM14 20.833c1.196 0 2.167 0.97 2.167 2.167s-0.97 2.167-2.167 2.167-2.167-0.97-2.167-2.167S12.804 20.833 14 20.833zM88.5 79h-78V29h78V79z" fill="#e363aa" data-fill-palette-color="accent"></path></svg></g></svg></g></svg></g><defs></defs></svg><rect width="395.52" height="46.44180868620419" fill="none" stroke="none" visibility="hidden"></rect></g></svg></g></svg>